<svg width="26" height="26" viewBox="0 0 26 26" fill="none" xmlns="http://www.w3.org/2000/svg">
<path d="M11.9167 19.5V22.75C11.9167 23.3458 11.4292 23.8333 10.8333 23.8333C10.2375 23.8333 9.75 23.3458 9.75 22.75V19.5H11.9167Z" stroke="white" stroke-width="1.2" stroke-miterlimit="10" stroke-linecap="round" stroke-linejoin="round"/>
<path d="M16.2526 19.5V22.75C16.2526 23.3458 15.7651 23.8333 15.1693 23.8333C14.5734 23.8333 14.0859 23.3458 14.0859 22.75V19.5H16.2526Z" stroke="white" stroke-width="1.2" stroke-miterlimit="10" stroke-linecap="round" stroke-linejoin="round"/>
<path d="M18.4193 11.9167V17.3333C18.4193 18.525 17.4443 19.5 16.2526 19.5H9.7526C8.56094 19.5 7.58594 18.525 7.58594 17.3333V11.9167C7.58594 10.725 8.56094 9.75 9.7526 9.75H16.2526C17.4443 9.75 18.4193 10.725 18.4193 11.9167Z" stroke="white" stroke-width="1.2" stroke-miterlimit="10" stroke-linecap="round" stroke-linejoin="round"/>
<path opacity="0.4" d="M5.41667 11.9193V16.2526C5.41667 16.8484 4.92917 17.3359 4.33333 17.3359C3.7375 17.3359 3.25 16.8484 3.25 16.2526V11.9193C3.25 11.3234 3.7375 10.8359 4.33333 10.8359C4.92917 10.8359 5.41667 11.3234 5.41667 11.9193Z" stroke="white" stroke-width="1.2" stroke-miterlimit="10" stroke-linecap="round" stroke-linejoin="round"/>
<path opacity="0.4" d="M22.7526 11.9193V16.2526C22.7526 16.8484 22.2651 17.3359 21.6693 17.3359C21.0734 17.3359 20.5859 16.8484 20.5859 16.2526V11.9193C20.5859 11.3234 21.0734 10.8359 21.6693 10.8359C22.2651 10.8359 22.7526 11.3234 22.7526 11.9193Z" stroke="white" stroke-width="1.2" stroke-miterlimit="10" stroke-linecap="round" stroke-linejoin="round"/>
<path d="M14.0807 19.5H11.9141" stroke="white" stroke-width="1.2" stroke-miterlimit="10" stroke-linecap="round" stroke-linejoin="round"/>
<path opacity="0.4" d="M10.3974 7.5823H15.5974C16.5508 7.5823 17.3307 6.80229 17.3307 5.84896C17.3307 3.45479 15.3916 1.51562 12.9974 1.51562C10.6032 1.51562 8.66406 3.45479 8.66406 5.84896C8.66406 6.80229 9.44404 7.5823 10.3974 7.5823Z" stroke="white" stroke-width="1.2" stroke-miterlimit="10" stroke-linecap="round" stroke-linejoin="round"/>
</svg>
