<svg width="22" height="22" viewBox="0 0 22 22" fill="none" xmlns="http://www.w3.org/2000/svg">
<path fill-rule="evenodd" clip-rule="evenodd" d="M10.9483 1.14587H11.0517C12.7363 1.14586 14.0707 1.14585 15.115 1.28625C16.1897 1.43074 17.0595 1.73518 17.7455 2.42118C18.4315 3.10718 18.736 3.97705 18.8805 5.05177C19.0209 6.09605 19.0209 7.43038 19.0209 9.115V12.8851C19.0209 14.5697 19.0209 15.904 18.8805 16.9483C18.736 18.023 18.4315 18.8929 17.7455 19.5789C17.0595 20.2649 16.1897 20.5693 15.115 20.7138C14.0707 20.8542 12.7363 20.8542 11.0517 20.8542H10.9483C9.2637 20.8542 7.92936 20.8542 6.88508 20.7138C5.81036 20.5693 4.94049 20.2649 4.25449 19.5789C3.56849 18.8929 3.26405 18.023 3.11956 16.9483C2.97916 15.904 2.97917 14.5697 2.97919 12.8851V9.11499C2.97917 7.43038 2.97916 6.09605 3.11956 5.05177C3.26405 3.97705 3.56849 3.10718 4.25449 2.42118C4.94049 1.73518 5.81036 1.43074 6.88508 1.28625C7.92936 1.14585 9.26369 1.14586 10.9483 1.14587ZM7.0683 2.64899C6.14605 2.77298 5.61471 3.00551 5.22677 3.39345C4.83882 3.78139 4.60629 4.31274 4.4823 5.23499C4.35565 6.17701 4.35419 7.41879 4.35419 9.16671V12.8334C4.35419 14.5813 4.35565 15.8231 4.4823 16.7651C4.60629 17.6873 4.83882 18.2187 5.22677 18.6066C5.61471 18.9946 6.14605 19.2271 7.0683 19.3511C8.01032 19.4777 9.2521 19.4792 11 19.4792C12.7479 19.4792 13.9897 19.4777 14.9317 19.3511C15.854 19.2271 16.3853 18.9946 16.7733 18.6066C17.1612 18.2187 17.3937 17.6873 17.5177 16.7651C17.6444 15.8231 17.6459 14.5813 17.6459 12.8334V9.16671C17.6459 7.41879 17.6444 6.17701 17.5177 5.23499C17.3937 4.31274 17.1612 3.78139 16.7733 3.39345C16.3853 3.00551 15.854 2.77298 14.9317 2.64899C13.9897 2.52233 12.7479 2.52087 11 2.52087C9.2521 2.52087 8.01032 2.52233 7.0683 2.64899ZM7.56252 4.58337C7.56252 4.20368 7.87032 3.89587 8.25002 3.89587H13.75C14.1297 3.89587 14.4375 4.20368 14.4375 4.58337C14.4375 4.96307 14.1297 5.27087 13.75 5.27087H8.25002C7.87032 5.27087 7.56252 4.96307 7.56252 4.58337ZM11 14.4375C10.3672 14.4375 9.85419 14.9505 9.85419 15.5834C9.85419 16.2162 10.3672 16.7292 11 16.7292C11.6328 16.7292 12.1459 16.2162 12.1459 15.5834C12.1459 14.9505 11.6328 14.4375 11 14.4375ZM8.47919 15.5834C8.47919 14.1912 9.6078 13.0625 11 13.0625C12.3922 13.0625 13.5209 14.1912 13.5209 15.5834C13.5209 16.9756 12.3922 18.1042 11 18.1042C9.6078 18.1042 8.47919 16.9756 8.47919 15.5834Z" fill="#8A95A4"/>
</svg>
