<svg width="26" height="26" viewBox="0 0 26 26" fill="none" xmlns="http://www.w3.org/2000/svg">
<path d="M18.0912 20.5597H7.90782C7.45282 20.5597 6.94365 20.2022 6.79198 19.7689L2.30698 7.22385C1.66782 5.42552 2.41532 4.87302 3.95365 5.97802L8.17865 9.00052C8.88282 9.48802 9.68448 9.23885 9.98782 8.44802L11.8945 3.36719C12.5012 1.74219 13.5087 1.74219 14.1153 3.36719L16.022 8.44802C16.3253 9.23885 17.127 9.48802 17.8203 9.00052L21.7853 6.17302C23.4753 4.95969 24.2878 5.57719 23.5945 7.53802L19.2178 19.7905C19.0553 20.2022 18.5462 20.5597 18.0912 20.5597Z" stroke="white" stroke-width="1.5" stroke-linecap="round" stroke-linejoin="round"/>
<path opacity="0.34" d="M7.03906 23.8359H18.9557" stroke="white" stroke-width="1.5" stroke-linecap="round" stroke-linejoin="round"/>
<path opacity="0.34" d="M10.2891 15.1641H15.7057" stroke="white" stroke-width="1.5" stroke-linecap="round" stroke-linejoin="round"/>
</svg>
