<svg width="22" height="22" viewBox="0 0 22 22" fill="none" xmlns="http://www.w3.org/2000/svg">
<path d="M19.2133 16.3534L17.7192 16.8575C17.3067 16.995 16.9767 17.3159 16.8392 17.7375L16.335 19.2317C15.9042 20.5242 14.0892 20.4967 13.6858 19.2042L11.99 13.75C11.66 12.6684 12.6592 11.66 13.7317 11.9992L19.195 13.695C20.4783 14.0984 20.4967 15.9225 19.2133 16.3534Z" fill="white"/>
<path d="M19.25 10.5417C19.25 10.9359 19.2225 11.33 19.1766 11.715C19.14 11.99 18.8558 12.155 18.59 12.0725L14.1441 10.6884C13.1541 10.3859 12.1 10.6425 11.3666 11.3667C10.6333 12.1 10.3675 13.1725 10.6791 14.1625L12.0541 18.59C12.1366 18.8559 11.9625 19.14 11.6875 19.1767C11.3025 19.2225 10.9266 19.25 10.5416 19.25C5.64664 19.25 1.70498 15.2259 1.83331 10.2942C1.96164 5.74754 5.74747 1.9617 10.2941 1.83337C15.2258 1.70504 19.25 5.6467 19.25 10.5417Z" fill="white"/>
</svg>
