<svg width="26" height="26" viewBox="0 0 26 26" fill="none" xmlns="http://www.w3.org/2000/svg">
<path opacity="0.4" d="M22.5676 8.67492L15.4718 2.99825C14.0851 1.89325 11.9184 1.88242 10.5426 2.98742L3.44675 8.67492C2.42842 9.48742 1.81092 11.1124 2.02758 12.3907L3.39258 20.5591C3.70675 22.3899 5.40758 23.8308 7.26008 23.8308H18.7434C20.5742 23.8308 22.3076 22.3574 22.6218 20.5483L23.9868 12.3799C24.1818 11.1124 23.5643 9.48742 22.5676 8.67492Z" fill="white"/>
<path d="M13 20.3125C12.5558 20.3125 12.1875 19.9442 12.1875 19.5V16.25C12.1875 15.8058 12.5558 15.4375 13 15.4375C13.4442 15.4375 13.8125 15.8058 13.8125 16.25V19.5C13.8125 19.9442 13.4442 20.3125 13 20.3125Z" fill="white"/>
</svg>
