<svg width="72" height="72" viewBox="0 0 72 72" fill="none" xmlns="http://www.w3.org/2000/svg">
<path d="M32.3873 2.26551C34.6703 1.16609 37.3297 1.16609 39.6127 2.26551L60.1222 12.1424C62.4052 13.2418 64.0633 15.321 64.6271 17.7914L69.6926 39.9846C70.2564 42.4549 69.6647 45.0476 68.0848 47.0287L53.8917 64.8263C52.3119 66.8073 49.9159 67.9612 47.382 67.9612H24.618C22.0841 67.9612 19.6881 66.8073 18.1083 64.8263L3.9152 47.0287C2.33533 45.0476 1.74357 42.4549 2.30742 39.9846L7.37286 17.7914C7.93671 15.321 9.5948 13.2418 11.8778 12.1424L32.3873 2.26551Z" stroke="#7D6CF5" stroke-width="0.947368"/>
<path d="M32.1812 7.52233C34.5941 6.36036 37.4047 6.36037 39.8176 7.52233L55.883 15.2591C58.2959 16.421 60.0483 18.6185 60.6442 21.2294L64.6121 38.6137C65.208 41.2246 64.5826 43.9648 62.9128 46.0586L51.7952 59.9997C50.1254 62.0935 47.5931 63.313 44.9151 63.313H27.0837C24.4057 63.313 21.8733 62.0935 20.2036 59.9997L9.08593 46.0586C7.41619 43.9648 6.79076 41.2246 7.38669 38.6137L11.3545 21.2294C11.9505 18.6185 13.7029 16.421 16.1157 15.2591L32.1812 7.52233Z" fill="#7D6CF5" fill-opacity="0.1"/>
<path d="M42.3077 45.3678H29.6919C29.1282 45.3678 28.4974 44.9249 28.3095 44.3881L22.7532 28.8465C21.9613 26.6186 22.8874 25.9341 24.7932 27.3031L30.0274 31.0475C30.8998 31.6515 31.8929 31.3428 32.2687 30.3631L34.6308 24.0686C35.3824 22.0554 36.6306 22.0554 37.3821 24.0686L39.7442 30.3631C40.12 31.3428 41.1132 31.6515 41.9721 31.0475L46.8842 27.5446C48.9779 26.0415 49.9845 26.8065 49.1256 29.2357L43.7035 44.4149C43.5021 44.9249 42.8714 45.3678 42.3077 45.3678Z" stroke="#7D6CF5" stroke-width="1.8" stroke-linecap="round" stroke-linejoin="round"/>
<path d="M28.6182 49.4209H43.3814" stroke="#7D6CF5" stroke-width="1.8" stroke-linecap="round" stroke-linejoin="round"/>
<path d="M32.6445 38.684H39.3551" stroke="#7D6CF5" stroke-width="1.8" stroke-linecap="round" stroke-linejoin="round"/>
</svg>
