<svg width="22" height="22" viewBox="0 0 22 22" fill="none" xmlns="http://www.w3.org/2000/svg">
<path d="M13.97 20.4142H13.8508C9.78083 20.4142 7.81916 18.81 7.47999 15.2167C7.44333 14.8408 7.71833 14.5016 8.10333 14.465C8.46999 14.4283 8.81833 14.7125 8.85499 15.0883C9.12083 17.9666 10.4775 19.0392 13.86 19.0392H13.9792C17.71 19.0392 19.03 17.7192 19.03 13.9883V8.01165C19.03 4.28082 17.71 2.96082 13.9792 2.96082H13.86C10.4592 2.96082 9.10249 4.05165 8.85499 6.98498C8.80916 7.36082 8.48833 7.64498 8.10333 7.60832C7.71833 7.58082 7.44333 7.24165 7.47083 6.86582C7.78249 3.21748 9.75333 1.58582 13.8508 1.58582H13.97C18.4708 1.58582 20.3958 3.51082 20.3958 8.01165V13.9883C20.3958 18.4891 18.4708 20.4142 13.97 20.4142Z" fill="#8A95A4"/>
<path d="M13.75 11.6875H3.31836C2.94253 11.6875 2.63086 11.3758 2.63086 11C2.63086 10.6242 2.94253 10.3125 3.31836 10.3125H13.75C14.1259 10.3125 14.4375 10.6242 14.4375 11C14.4375 11.3758 14.1259 11.6875 13.75 11.6875Z" fill="#8A95A4"/>
<path d="M5.36249 14.7584C5.18832 14.7584 5.01415 14.6942 4.87665 14.5567L1.80582 11.4859C1.53999 11.2201 1.53999 10.7801 1.80582 10.5142L4.87665 7.44339C5.14249 7.17756 5.58249 7.17756 5.84832 7.44339C6.11415 7.70923 6.11415 8.14923 5.84832 8.41506L3.26332 11.0001L5.84832 13.5851C6.11415 13.8509 6.11415 14.2909 5.84832 14.5567C5.71999 14.6942 5.53665 14.7584 5.36249 14.7584Z" fill="#8A95A4"/>
</svg>
