<svg width="22" height="22" viewBox="0 0 22 22" fill="none" xmlns="http://www.w3.org/2000/svg">
<path d="M15.4 1.83337H13.0167C10.0833 1.83337 8.25 3.66671 8.25 6.60004V10.3125H13.9792C14.355 10.3125 14.6667 10.6242 14.6667 11C14.6667 11.3759 14.355 11.6875 13.9792 11.6875H8.25V15.4C8.25 18.3334 10.0833 20.1667 13.0167 20.1667H15.3908C18.3242 20.1667 20.1575 18.3334 20.1575 15.4V6.60004C20.1667 3.66671 18.3333 1.83337 15.4 1.83337Z" fill="white"/>
<path d="M4.17995 10.3126L6.07745 8.41506C6.21495 8.27756 6.27911 8.10339 6.27911 7.92923C6.27911 7.75506 6.21495 7.57173 6.07745 7.44339C5.81161 7.17756 5.37161 7.17756 5.10578 7.44339L2.03495 10.5142C1.76911 10.7801 1.76911 11.2201 2.03495 11.4859L5.10578 14.5567C5.37161 14.8226 5.81161 14.8226 6.07745 14.5567C6.34328 14.2909 6.34328 13.8509 6.07745 13.5851L4.17995 11.6876H8.24995V10.3126H4.17995Z" fill="white"/>
</svg>
