<svg width="26" height="26" viewBox="0 0 26 26" fill="none" xmlns="http://www.w3.org/2000/svg">
<path d="M20.93 2.16663H5.06996C3.47746 2.16663 2.16663 3.47746 2.16663 5.06996V7.91913C2.16663 9.52246 3.47746 10.8333 5.06996 10.8333H20.9191C22.5225 10.8333 23.8333 9.52246 23.8333 7.92996V5.06996C23.8333 3.47746 22.5225 2.16663 20.93 2.16663ZM7.31246 7.58329C7.31246 8.02746 6.94413 8.39579 6.49996 8.39579C6.05579 8.39579 5.68746 8.02746 5.68746 7.58329V5.41663C5.68746 4.97246 6.05579 4.60413 6.49996 4.60413C6.94413 4.60413 7.31246 4.97246 7.31246 5.41663V7.58329ZM11.6458 7.58329C11.6458 8.02746 11.2775 8.39579 10.8333 8.39579C10.3891 8.39579 10.0208 8.02746 10.0208 7.58329V5.41663C10.0208 4.97246 10.3891 4.60413 10.8333 4.60413C11.2775 4.60413 11.6458 4.97246 11.6458 5.41663V7.58329ZM19.5 7.31246H15.1666C14.7225 7.31246 14.3541 6.94413 14.3541 6.49996C14.3541 6.05579 14.7225 5.68746 15.1666 5.68746H19.5C19.9441 5.68746 20.3125 6.05579 20.3125 6.49996C20.3125 6.94413 19.9441 7.31246 19.5 7.31246Z" fill="white"/>
<path d="M20.93 15.1666H5.06996C3.47746 15.1666 2.16663 16.4775 2.16663 18.07V20.9191C2.16663 22.5225 3.47746 23.8333 5.06996 23.8333H20.9191C22.5225 23.8333 23.8225 22.5225 23.8225 20.93V18.0808C23.8333 16.4775 22.5225 15.1666 20.93 15.1666ZM7.31246 20.5833C7.31246 21.0275 6.94413 21.3958 6.49996 21.3958C6.05579 21.3958 5.68746 21.0275 5.68746 20.5833V18.4166C5.68746 17.9725 6.05579 17.6041 6.49996 17.6041C6.94413 17.6041 7.31246 17.9725 7.31246 18.4166V20.5833ZM11.6458 20.5833C11.6458 21.0275 11.2775 21.3958 10.8333 21.3958C10.3891 21.3958 10.0208 21.0275 10.0208 20.5833V18.4166C10.0208 17.9725 10.3891 17.6041 10.8333 17.6041C11.2775 17.6041 11.6458 17.9725 11.6458 18.4166V20.5833ZM19.5 20.3125H15.1666C14.7225 20.3125 14.3541 19.9441 14.3541 19.5C14.3541 19.0558 14.7225 18.6875 15.1666 18.6875H19.5C19.9441 18.6875 20.3125 19.0558 20.3125 19.5C20.3125 19.9441 19.9441 20.3125 19.5 20.3125Z" fill="white"/>
</svg>
