<svg width="22" height="22" viewBox="0 0 22 22" fill="none" xmlns="http://www.w3.org/2000/svg">
<path d="M17.71 9.1667H4.29914C2.94248 9.1667 1.84247 8.05754 1.84247 6.71004V4.2992C1.84247 2.94254 2.95164 1.84253 4.29914 1.84253H17.71C19.0666 1.84253 20.1666 2.9517 20.1666 4.2992V6.71004C20.1666 8.05754 19.0575 9.1667 17.71 9.1667Z" stroke="#8A95A4" stroke-width="1.5" stroke-linecap="round" stroke-linejoin="round"/>
<path d="M17.71 20.1667H4.29914C2.94248 20.1667 1.84247 19.0575 1.84247 17.71V15.2992C1.84247 13.9425 2.95164 12.8425 4.29914 12.8425H17.71C19.0666 12.8425 20.1666 13.9517 20.1666 15.2992V17.71C20.1666 19.0575 19.0575 20.1667 17.71 20.1667Z" stroke="#8A95A4" stroke-width="1.5" stroke-linecap="round" stroke-linejoin="round"/>
<path d="M5.5 4.58337V6.41671" stroke="#8A95A4" stroke-width="1.5" stroke-linecap="round" stroke-linejoin="round"/>
<path d="M9.16669 4.58337V6.41671" stroke="#8A95A4" stroke-width="1.5" stroke-linecap="round" stroke-linejoin="round"/>
<path d="M5.5 15.5834V17.4167" stroke="#8A95A4" stroke-width="1.5" stroke-linecap="round" stroke-linejoin="round"/>
<path d="M9.16669 15.5834V17.4167" stroke="#8A95A4" stroke-width="1.5" stroke-linecap="round" stroke-linejoin="round"/>
<path d="M12.8333 5.5H16.5" stroke="#8A95A4" stroke-width="1.5" stroke-linecap="round" stroke-linejoin="round"/>
<path d="M12.8333 16.5H16.5" stroke="#8A95A4" stroke-width="1.5" stroke-linecap="round" stroke-linejoin="round"/>
</svg>
