<svg width="22" height="22" viewBox="0 0 22 22" fill="none" xmlns="http://www.w3.org/2000/svg">
<path d="M11.6875 5.49992C11.6875 5.12022 11.3797 4.81242 11 4.81242C10.6203 4.81242 10.3125 5.12022 10.3125 5.49992V9.16659C10.3125 9.54628 10.6203 9.85409 11 9.85409C11.3797 9.85409 11.6875 9.54628 11.6875 9.16659V5.49992Z" fill="#8A95A4"/>
<path fill-rule="evenodd" clip-rule="evenodd" d="M3.89591 8.24992C3.89591 4.3264 7.07655 1.14575 11.0001 1.14575C14.9236 1.14575 18.1042 4.3264 18.1042 8.24992V8.89535C18.1042 9.53419 18.2933 10.1587 18.6477 10.6903L19.7006 12.2696C20.9226 14.1026 19.9897 16.5941 17.8643 17.1738C17.1716 17.3627 16.4731 17.5225 15.7705 17.6532L15.7688 17.6579C15.0639 19.5388 13.1798 20.8541 11 20.8541C8.82019 20.8541 6.93616 19.5388 6.23124 17.6579L6.2295 17.6532C5.52697 17.5225 4.82847 17.3627 4.13583 17.1738C2.01045 16.5941 1.07755 14.1026 2.29956 12.2696L3.35244 10.6903C3.70681 10.1587 3.89591 9.53419 3.89591 8.89535V8.24992ZM7.90491 17.9088C9.96095 18.1545 12.0391 18.1545 14.0951 17.9088C13.4434 18.8452 12.3099 19.4791 11 19.4791C9.69014 19.4791 8.55661 18.8452 7.90491 17.9088ZM11.0001 2.52075C7.83595 2.52075 5.27091 5.08579 5.27091 8.24992V8.89535C5.27091 9.80565 5.00146 10.6956 4.49651 11.453L3.44363 13.0323C2.74222 14.0844 3.27769 15.5145 4.49761 15.8472C8.75485 17.0083 13.2453 17.0083 17.5025 15.8472C18.7225 15.5145 19.2579 14.0845 18.5565 13.0323L17.5036 11.453C16.9987 10.6956 16.7292 9.80565 16.7292 8.89535V8.24992C16.7292 5.08579 14.1642 2.52075 11.0001 2.52075Z" fill="#8A95A4"/>
</svg>
