<svg width="26" height="26" viewBox="0 0 26 26" fill="none" xmlns="http://www.w3.org/2000/svg">
<path fill-rule="evenodd" clip-rule="evenodd" d="M3.02869 5.46523C3.3903 3.0316 5.33376 1.08337 7.7993 1.08337C9.2753 1.08337 10.5799 1.79441 11.4538 2.88196C11.7383 3.23591 11.6812 3.75289 11.3265 4.03667C10.9717 4.32044 10.4535 4.26355 10.1691 3.9096C9.57399 3.16905 8.72422 2.72623 7.7993 2.72623C6.34388 2.72623 5.03291 3.8552 4.69752 5.47088C4.86 5.49147 5.01794 5.5605 5.14811 5.67903C5.48397 5.98486 5.50774 6.50442 5.2012 6.8395L4.39964 7.71568C4.24365 7.88621 4.02293 7.98336 3.79152 7.98336C3.56012 7.98336 3.3394 7.88621 3.1834 7.71568L2.38184 6.8395C2.0753 6.50442 2.09907 5.98486 2.43493 5.67903C2.60317 5.52583 2.81782 5.45532 3.02869 5.46523ZM12.0684 4.58813C12.2998 4.58813 12.5205 4.68528 12.6765 4.8558L13.4781 5.73199C13.7846 6.06707 13.7609 6.58663 13.425 6.89246C13.2568 7.04566 13.0421 7.11617 12.8312 7.10626C12.4696 9.53989 10.5262 11.4881 8.06062 11.4881C6.68783 11.4881 5.46159 10.8724 4.59405 9.9103C4.28994 9.57303 4.31745 9.05365 4.65551 8.75024C4.99356 8.44683 5.51414 8.47428 5.81825 8.81155C6.40437 9.46158 7.19901 9.84526 8.06062 9.84526C9.51604 9.84526 10.827 8.71629 11.1624 7.10061C10.9999 7.08002 10.842 7.01099 10.7118 6.89246C10.376 6.58663 10.3522 6.06707 10.6587 5.73199L11.4603 4.85581C11.6163 4.68528 11.837 4.58813 12.0684 4.58813Z" fill="white"/>
<path fill-rule="evenodd" clip-rule="evenodd" d="M22.75 12.8572V17.2382C22.75 21.3685 22.75 23.4337 21.4638 24.7169C20.1777 26 18.1077 26 13.9677 26C9.82776 26 7.75777 26 6.47165 24.7169C5.18552 23.4337 5.18552 21.3685 5.18552 17.2382V15.3616C5.18552 15.0707 5.18552 14.9253 5.21304 14.805C5.30688 14.3948 5.62791 14.0745 6.03902 13.9809C6.15961 13.9535 6.30556 13.9535 6.59745 13.9535C8.34554 13.9535 9.21958 13.9535 9.94181 13.7893C12.4107 13.2282 14.3386 11.3048 14.901 8.84162C15.0655 8.12106 15.0655 7.25006 15.0655 5.50804C15.0655 5.21906 15.0655 5.07457 15.0936 4.953C15.1888 4.54194 15.5242 4.21394 15.9381 4.1274C16.0605 4.10181 16.2007 4.10464 16.4812 4.11031C19.0068 4.16139 20.4695 4.38648 21.4638 5.37847C22.75 6.66162 22.75 8.72682 22.75 12.8572ZM10.6744 21.8929C10.2197 21.8929 9.85107 22.2606 9.85107 22.7143C9.85107 23.1679 10.2197 23.5357 10.6744 23.5357H17.2611C17.7158 23.5357 18.0844 23.1679 18.0844 22.7143C18.0844 22.2606 17.7158 21.8929 17.2611 21.8929H10.6744Z" fill="white"/>
</svg>
