<svg width="22" height="22" viewBox="0 0 22 22" fill="none" xmlns="http://www.w3.org/2000/svg">
<path fill-rule="evenodd" clip-rule="evenodd" d="M1.86565 3.82612C2.16761 1.78928 3.79044 0.158691 5.84921 0.158691C7.0817 0.158691 8.17106 0.753801 8.90082 1.66404C9.13832 1.96028 9.09071 2.39297 8.79447 2.63047C8.49822 2.86798 8.06553 2.82036 7.82803 2.52412C7.33111 1.90432 6.62153 1.53369 5.84921 1.53369C4.63391 1.53369 3.53922 2.47859 3.25916 3.83085C3.39483 3.84808 3.52672 3.90586 3.63542 4.00506C3.91586 4.26103 3.93571 4.69588 3.67974 4.97633L3.01043 5.70966C2.88017 5.85238 2.69586 5.93369 2.50263 5.93369C2.30941 5.93369 2.1251 5.85238 1.99484 5.70966L1.32552 4.97633C1.06956 4.69588 1.0894 4.26103 1.36985 4.00506C1.51034 3.87684 1.68957 3.81783 1.86565 3.82612ZM11.2292 2.67837C11.2303 2.29867 11.539 1.99177 11.9187 1.99288C13.3368 1.99703 14.4858 2.02031 15.4081 2.1768C16.3505 2.33669 17.1239 2.64576 17.7455 3.26733C18.4315 3.95333 18.736 4.8232 18.8804 5.89792C19.0208 6.9422 19.0208 8.27653 19.0208 9.96115V13.7312C19.0208 15.4159 19.0208 16.7502 18.8804 17.7945C18.736 18.8692 18.4315 19.7391 17.7455 20.4251C17.0595 21.1111 16.1896 21.4155 15.1149 21.56C14.0706 21.7004 12.7363 21.7004 11.0517 21.7004H10.9483C9.26366 21.7004 7.92933 21.7004 6.88505 21.56C5.81033 21.4155 4.94046 21.1111 4.25446 20.4251C3.56846 19.7391 3.26402 18.8692 3.11952 17.7945C2.97912 16.7502 2.97914 15.4159 2.97915 13.7312L2.97915 10.9304C2.97915 10.5507 3.28695 10.2429 3.66665 10.2429C4.04635 10.2429 4.35415 10.5507 4.35415 10.9304V13.6795C4.35415 15.4274 4.35561 16.6692 4.48226 17.6112C4.60626 18.5335 4.83879 19.0648 5.22673 19.4528C5.61467 19.8407 6.14601 20.0733 7.06826 20.1972C8.01029 20.3239 9.25207 20.3254 11 20.3254C12.7479 20.3254 13.9897 20.3239 14.9317 20.1972C15.854 20.0733 16.3853 19.8407 16.7732 19.4528C17.1612 19.0648 17.3937 18.5335 17.5177 17.6112C17.6444 16.6692 17.6458 15.4274 17.6458 13.6795V10.0129C17.6458 8.26494 17.6444 7.02316 17.5177 6.08114C17.3937 5.15889 17.1612 4.62754 16.7732 4.2396C16.4203 3.88667 15.9498 3.66337 15.1781 3.53243C14.3864 3.39809 13.3512 3.37208 11.9146 3.36787C11.5349 3.36676 11.228 3.05806 11.2292 2.67837ZM9.414 3.09203C9.60723 3.09203 9.79153 3.17334 9.9218 3.31606L10.5911 4.04939C10.8471 4.32984 10.8272 4.76469 10.5468 5.02065C10.4063 5.14888 10.2271 5.20789 10.051 5.1996C9.74903 7.23644 8.1262 8.86703 6.06742 8.86703C4.92111 8.86703 3.89718 8.35172 3.17276 7.54646C2.91882 7.26418 2.9418 6.82948 3.22408 6.57554C3.50636 6.3216 3.94105 6.34457 4.195 6.62686C4.68442 7.1709 5.34795 7.49203 6.06742 7.49203C7.28273 7.49203 8.37742 6.54713 8.65748 5.19486C8.5218 5.17763 8.38991 5.11986 8.28122 5.02065C8.00077 4.76469 7.98093 4.32984 8.23689 4.04939L8.90621 3.31606C9.03647 3.17334 9.22077 3.09203 9.414 3.09203ZM7.56248 18.2629C7.56248 17.8832 7.87029 17.5754 8.24998 17.5754H13.75C14.1297 17.5754 14.4375 17.8832 14.4375 18.2629C14.4375 18.6426 14.1297 18.9504 13.75 18.9504H8.24998C7.87029 18.9504 7.56248 18.6426 7.56248 18.2629Z" fill="#8A95A4"/>
</svg>
