<svg width="26" height="26" viewBox="0 0 26 26" fill="none" xmlns="http://www.w3.org/2000/svg">
<path opacity="0.4" d="M19.4941 7.75407C19.4291 7.74323 19.3532 7.74323 19.2882 7.75407C17.7932 7.6999 16.6016 6.47573 16.6016 4.95906C16.6016 3.4099 17.8474 2.16406 19.3966 2.16406C20.9457 2.16406 22.1916 3.42073 22.1916 4.95906C22.1807 6.47573 20.9891 7.6999 19.4941 7.75407Z" stroke="white" stroke-width="1.5" stroke-linecap="round" stroke-linejoin="round"/>
<path opacity="0.4" d="M18.3841 15.6409C19.8682 15.8901 21.5041 15.6301 22.6524 14.8609C24.1799 13.8426 24.1799 12.1742 22.6524 11.1559C21.4932 10.3867 19.8357 10.1267 18.3516 10.3867" stroke="white" stroke-width="1.5" stroke-linecap="round" stroke-linejoin="round"/>
<path opacity="0.4" d="M6.46313 7.75407C6.52813 7.74323 6.60396 7.74323 6.66896 7.75407C8.16396 7.6999 9.35563 6.47573 9.35563 4.95906C9.35563 3.4099 8.10979 2.16406 6.56063 2.16406C5.01146 2.16406 3.76562 3.42073 3.76562 4.95906C3.77646 6.47573 4.96813 7.6999 6.46313 7.75407Z" stroke="white" stroke-width="1.5" stroke-linecap="round" stroke-linejoin="round"/>
<path opacity="0.4" d="M7.57802 15.6409C6.09385 15.8901 4.45802 15.6301 3.30969 14.8609C1.78219 13.8426 1.78219 12.1742 3.30969 11.1559C4.46885 10.3867 6.12635 10.1267 7.61052 10.3867" stroke="white" stroke-width="1.5" stroke-linecap="round" stroke-linejoin="round"/>
<path d="M13.0019 15.8478C12.9369 15.837 12.861 15.837 12.796 15.8478C11.301 15.7937 10.1094 14.5695 10.1094 13.0528C10.1094 11.5036 11.3552 10.2578 12.9044 10.2578C14.4535 10.2578 15.6994 11.5145 15.6994 13.0528C15.6885 14.5695 14.4969 15.8045 13.0019 15.8478Z" stroke="white" stroke-width="1.5" stroke-linecap="round" stroke-linejoin="round"/>
<path d="M9.84875 19.2597C8.32125 20.278 8.32125 21.9464 9.84875 22.9647C11.5821 24.1239 14.4204 24.1239 16.1537 22.9647C17.6812 21.9464 17.6812 20.278 16.1537 19.2597C14.4312 18.1114 11.5821 18.1114 9.84875 19.2597Z" stroke="white" stroke-width="1.5" stroke-linecap="round" stroke-linejoin="round"/>
</svg>
