<svg width="26" height="26" viewBox="0 0 26 26" fill="none" xmlns="http://www.w3.org/2000/svg">
<path fill-rule="evenodd" clip-rule="evenodd" d="M14.9532 5.77786C14.9532 3.7835 16.5773 2.16675 18.5808 2.16675C20.5842 2.16675 22.2083 3.7835 22.2083 5.77786C22.2083 7.77222 20.5842 9.38897 18.5808 9.38897C17.5691 9.38897 16.6549 8.97653 15.9976 8.31301L10.9759 11.7321C11.0224 11.9628 11.0467 12.2011 11.0467 12.4445C11.0467 12.9266 10.9514 13.3875 10.7787 13.8086L16.285 17.4264C16.9099 16.9175 17.7096 16.6112 18.5808 16.6112C20.5842 16.6112 22.2083 18.2279 22.2083 20.2223C22.2083 22.2167 20.5842 23.8334 18.5808 23.8334C16.5773 23.8334 14.9532 22.2167 14.9532 20.2223C14.9532 19.6999 15.0651 19.2027 15.266 18.7538L9.8042 15.1653C9.16708 15.7191 8.33253 16.0556 7.41915 16.0556C5.41572 16.0556 3.79163 14.4389 3.79163 12.4445C3.79163 10.4502 5.41572 8.83342 7.41915 8.83342C8.57119 8.83342 9.5967 9.36794 10.2607 10.1999L15.1275 6.88621C15.0143 6.53647 14.9532 6.16381 14.9532 5.77786Z" fill="white"/>
</svg>
