<svg width="22" height="22" viewBox="0 0 22 22" fill="none" xmlns="http://www.w3.org/2000/svg">
<path fill-rule="evenodd" clip-rule="evenodd" d="M15.125 2.0625C13.4797 2.0625 12.1459 3.39632 12.1459 5.04167C12.1459 5.22125 12.1617 5.39712 12.1922 5.56795L7.85577 8.60344C7.83373 8.61887 7.81288 8.63535 7.79323 8.65278C7.28745 8.25684 6.65047 8.02083 5.95835 8.02083C4.31301 8.02083 2.97919 9.35465 2.97919 11C2.97919 12.6453 4.31301 13.9792 5.95835 13.9792C6.65047 13.9792 7.28745 13.7432 7.79323 13.3472C7.81288 13.3646 7.83373 13.3811 7.85577 13.3966L12.1922 16.4321C12.1617 16.6029 12.1459 16.7788 12.1459 16.9583C12.1459 18.6037 13.4797 19.9375 15.125 19.9375C16.7704 19.9375 18.1042 18.6037 18.1042 16.9583C18.1042 15.313 16.7704 13.9792 15.125 13.9792C14.16 13.9792 13.3021 14.438 12.7577 15.1495L8.65157 12.2752C8.83494 11.8886 8.93752 11.4563 8.93752 11C8.93752 10.5437 8.83494 10.1114 8.65157 9.72478L12.7577 6.85052C13.3021 7.56197 14.16 8.02083 15.125 8.02083C16.7704 8.02083 18.1042 6.68702 18.1042 5.04167C18.1042 3.39632 16.7704 2.0625 15.125 2.0625ZM13.5209 5.04167C13.5209 4.15571 14.2391 3.4375 15.125 3.4375C16.011 3.4375 16.7292 4.15571 16.7292 5.04167C16.7292 5.92762 16.011 6.64583 15.125 6.64583C14.2391 6.64583 13.5209 5.92762 13.5209 5.04167ZM5.95835 9.39583C5.0724 9.39583 4.35419 10.114 4.35419 11C4.35419 11.886 5.0724 12.6042 5.95835 12.6042C6.84431 12.6042 7.56252 11.886 7.56252 11C7.56252 10.114 6.84431 9.39583 5.95835 9.39583ZM15.125 15.3542C14.2391 15.3542 13.5209 16.0724 13.5209 16.9583C13.5209 17.8443 14.2391 18.5625 15.125 18.5625C16.011 18.5625 16.7292 17.8443 16.7292 16.9583C16.7292 16.0724 16.011 15.3542 15.125 15.3542Z" fill="#8A95A4"/>
</svg>
