<svg width="26" height="26" viewBox="0 0 26 26" fill="none" xmlns="http://www.w3.org/2000/svg">
<path d="M7.85421 13C7.85421 12.5558 8.22255 12.1875 8.66671 12.1875H11.9167V8.12496C11.9167 7.52913 11.4292 7.04163 10.8334 7.04163H8.41755C5.00505 7.04163 2.03671 9.83663 2.16671 13.2383C2.23171 14.7875 2.88171 16.185 3.91088 17.2141C4.99421 18.2866 6.47838 18.9583 8.12505 18.9583H10.8334C11.4292 18.9583 11.9167 18.4708 11.9167 17.875V13.8125H8.66671C8.22255 13.8125 7.85421 13.4441 7.85421 13Z" fill="white"/>
<path d="M22.0892 8.78579C21.0059 7.71329 19.5217 7.04163 17.875 7.04163H15.1667C14.5709 7.04163 14.0834 7.52913 14.0834 8.12496V12.1875H17.3334C17.7775 12.1875 18.1459 12.5558 18.1459 13C18.1459 13.4441 17.7775 13.8125 17.3334 13.8125H14.0834V17.875C14.0834 18.4708 14.5709 18.9583 15.1667 18.9583H17.5825C20.995 18.9583 23.9634 16.1633 23.8225 12.7616C23.7684 11.2125 23.1075 9.81496 22.0892 8.78579Z" fill="white"/>
<path d="M14.0833 12.1875H11.9166V13.8125H14.0833V12.1875Z" fill="white"/>
</svg>
