<svg width="22" height="22" viewBox="0 0 22 22" fill="none" xmlns="http://www.w3.org/2000/svg">
<path fill-rule="evenodd" clip-rule="evenodd" d="M10.9483 1.14587H11.0517C12.7363 1.14586 14.0707 1.14585 15.115 1.28625C16.1897 1.43074 17.0595 1.73518 17.7455 2.42118C18.4315 3.10718 18.736 3.97705 18.8805 5.05177C19.0209 6.09605 19.0209 7.43038 19.0209 9.115V12.8851C19.0209 14.5697 19.0209 15.904 18.8805 16.9483C18.736 18.023 18.4315 18.8929 17.7455 19.5789C17.0595 20.2649 16.1897 20.5693 15.115 20.7138C14.0707 20.8542 12.7363 20.8542 11.0517 20.8542H10.9483C9.2637 20.8542 7.92936 20.8542 6.88508 20.7138C5.81036 20.5693 4.94049 20.2649 4.25449 19.5789C3.56849 18.8929 3.26405 18.023 3.11956 16.9483C2.97916 15.904 2.97917 14.5697 2.97919 12.8851V9.11499C2.97917 7.43038 2.97916 6.09605 3.11956 5.05177C3.26405 3.97705 3.56849 3.10718 4.25449 2.42118C4.94049 1.73518 5.81036 1.43074 6.88508 1.28625C7.92936 1.14585 9.26369 1.14586 10.9483 1.14587ZM6.24616 2.81711C5.79789 2.95109 5.48143 3.13879 5.22677 3.39345C4.83882 3.78139 4.60629 4.31274 4.4823 5.23499C4.35565 6.17701 4.35419 7.41879 4.35419 9.16671V12.8334C4.35419 14.5813 4.35565 15.8231 4.4823 16.7651C4.60629 17.6873 4.83882 18.2187 5.22677 18.6066C5.61471 18.9946 6.14605 19.2271 7.0683 19.3511C8.01032 19.4777 9.2521 19.4792 11 19.4792C12.7479 19.4792 13.9897 19.4777 14.9317 19.3511C15.854 19.2271 16.3853 18.9946 16.7733 18.6066C17.1612 18.2187 17.3937 17.6873 17.5177 16.7651C17.6444 15.8231 17.6459 14.5813 17.6459 12.8334V9.16671C17.6459 7.41879 17.6444 6.17701 17.5177 5.23499C17.3937 4.31274 17.1612 3.78139 16.7733 3.39345C16.5186 3.13879 16.2022 2.95109 15.7539 2.81711C15.1473 3.72799 14.7232 4.36122 14.0926 4.75308C13.9668 4.83126 13.836 4.90122 13.7012 4.96253C13.0209 5.2719 12.2531 5.2715 11.1471 5.27093C11.0987 5.2709 11.0497 5.27087 11 5.27087C10.9503 5.27087 10.9013 5.2709 10.853 5.27093C9.7469 5.2715 8.97915 5.2719 8.29883 4.96253C8.164 4.90122 8.03327 4.83126 7.90747 4.75308C7.27685 4.36122 6.85275 3.728 6.24616 2.81711ZM7.74703 2.58145C8.1541 3.17137 8.36726 3.41995 8.63319 3.5852C8.70867 3.6321 8.78711 3.67408 8.86801 3.71087C9.24284 3.88132 9.68697 3.89587 11 3.89587C12.3131 3.89587 12.7572 3.88132 13.132 3.71087C13.2129 3.67408 13.2914 3.6321 13.3669 3.5852C13.6328 3.41995 13.8459 3.17137 14.253 2.58145C13.4095 2.52176 12.3573 2.52087 11 2.52087C9.6427 2.52087 8.59058 2.52176 7.74703 2.58145ZM7.56252 17.4167C7.56252 17.037 7.87032 16.7292 8.25002 16.7292H13.75C14.1297 16.7292 14.4375 17.037 14.4375 17.4167C14.4375 17.7964 14.1297 18.1042 13.75 18.1042H8.25002C7.87032 18.1042 7.56252 17.7964 7.56252 17.4167Z" fill="#8A95A4"/>
</svg>
