<svg width="26" height="26" viewBox="0 0 26 26" fill="none" xmlns="http://www.w3.org/2000/svg">
<path fill-rule="evenodd" clip-rule="evenodd" d="M21.6667 10.6182V15.0232C21.6667 19.1763 21.6667 21.2529 20.3975 22.5431C19.1283 23.8333 17.0855 23.8333 13 23.8333C8.91453 23.8333 6.87178 23.8333 5.60258 22.5431C4.33337 21.2529 4.33337 19.1763 4.33337 15.0232V10.6182C4.33337 6.4651 4.33337 4.38855 5.60258 3.09834C6.00972 2.68447 6.49645 2.40336 7.10468 2.21242C7.48741 2.09228 7.89274 2.2634 8.12504 2.592C8.18344 2.68104 8.23885 2.76575 8.29163 2.84643C8.97902 3.89724 9.21852 4.26335 9.77404 4.61426C9.89298 4.6894 10.0166 4.75664 10.1441 4.81557C10.7851 5.11191 11.5234 5.11191 13 5.11191C14.4766 5.11191 15.2149 5.11191 15.856 4.81557C15.9835 4.75664 16.1071 4.6894 16.226 4.61426C16.7816 4.26335 17.0211 3.89724 17.7084 2.84644C17.7612 2.76576 17.8166 2.68105 17.875 2.592C18.0909 2.26234 18.486 2.08694 18.8615 2.2019C19.4856 2.39299 19.9828 2.6768 20.3975 3.09834C21.6667 4.38855 21.6667 6.4651 21.6667 10.6182ZM9.75004 19.7484C9.30131 19.7484 8.93754 20.1142 8.93754 20.5654C8.93754 21.0166 9.30131 21.3824 9.75004 21.3824H16.25C16.6988 21.3824 17.0625 21.0166 17.0625 20.5654C17.0625 20.1142 16.6988 19.7484 16.25 19.7484H9.75004Z" fill="white"/>
</svg>
