<svg width="26" height="26" viewBox="0 0 26 26" fill="none" xmlns="http://www.w3.org/2000/svg">
<path fill-rule="evenodd" clip-rule="evenodd" d="M11.7506 23.762C6.35602 23.1426 2.16663 18.5605 2.16663 13C2.16663 7.01687 7.01687 2.16663 13 2.16663C18.983 2.16663 23.8333 7.01687 23.8333 13C23.8333 18.5862 20.277 18.1268 17.2396 17.7344C15.4877 17.5081 13.9085 17.3041 13.2837 18.2952C12.8564 18.9731 13.3183 19.8183 13.8848 20.3848C14.5928 21.0928 14.5928 22.2405 13.8848 22.9484C13.3183 23.515 12.5467 23.8534 11.7506 23.762ZM12.0087 7.58303C12.0087 8.48049 11.2812 9.20803 10.3837 9.20803C9.48625 9.20803 8.75871 8.48049 8.75871 7.58303C8.75871 6.68556 9.48625 5.95803 10.3837 5.95803C11.2812 5.95803 12.0087 6.68556 12.0087 7.58303ZM7.04163 14.0833C7.93909 14.0833 8.66663 13.3557 8.66663 12.4583C8.66663 11.5608 7.93909 10.8333 7.04163 10.8333C6.14416 10.8333 5.41663 11.5608 5.41663 12.4583C5.41663 13.3557 6.14416 14.0833 7.04163 14.0833ZM18.9583 14.0833C19.8558 14.0833 20.5833 13.3557 20.5833 12.4583C20.5833 11.5608 19.8558 10.8333 18.9583 10.8333C18.0608 10.8333 17.3333 11.5608 17.3333 12.4583C17.3333 13.3557 18.0608 14.0833 18.9583 14.0833ZM15.7083 9.20827C16.6058 9.20827 17.3333 8.48074 17.3333 7.58327C17.3333 6.68581 16.6058 5.95827 15.7083 5.95827C14.8108 5.95827 14.0833 6.68581 14.0833 7.58327C14.0833 8.48074 14.8108 9.20827 15.7083 9.20827Z" fill="white"/>
</svg>
