<svg width="22" height="22" viewBox="0 0 22 22" fill="none" xmlns="http://www.w3.org/2000/svg">
<path fill-rule="evenodd" clip-rule="evenodd" d="M11 2.52087C6.31875 2.52087 2.52081 6.32615 2.52081 11.024C2.52081 15.3895 5.8012 18.9853 10.0215 19.4711C10.4454 19.5199 10.8992 19.3421 11.262 18.9784C11.5933 18.6461 11.5933 18.1068 11.262 17.7745C10.976 17.4879 10.6893 17.1058 10.5324 16.6717C10.3717 16.2269 10.332 15.6689 10.658 15.1504C10.954 14.6795 11.3979 14.4275 11.8636 14.3049C12.312 14.1869 12.8089 14.1803 13.2862 14.2092C13.7298 14.2361 14.2074 14.298 14.6708 14.3581C14.7098 14.3632 14.7488 14.3682 14.7876 14.3732C15.2982 14.4391 15.7967 14.5006 16.2782 14.5236C17.263 14.5709 18.0216 14.4467 18.54 14.0229C19.0361 13.6173 19.4791 12.7938 19.4791 11.024C19.4791 6.32615 15.6812 2.52087 11 2.52087ZM1.14581 11.024C1.14581 5.57014 5.55598 1.14587 11 1.14587C16.444 1.14587 20.8541 5.57014 20.8541 11.024C20.8541 12.9904 20.362 14.3093 19.4102 15.0874C18.4807 15.8473 17.2787 15.9482 16.2124 15.8971C15.6685 15.871 15.1189 15.8024 14.6116 15.7369C14.5759 15.7323 14.5406 15.7277 14.5054 15.7232C14.0292 15.6615 13.5973 15.6056 13.2029 15.5817C12.7756 15.5558 12.4509 15.5722 12.2135 15.6347C11.9934 15.6926 11.8873 15.7784 11.822 15.8822C11.7865 15.9388 11.7614 16.0268 11.8256 16.2045C11.8936 16.3927 12.042 16.6096 12.2355 16.8035C13.1021 17.6724 13.1021 19.0805 12.2355 19.9494C11.6395 20.547 10.7875 20.9434 9.86424 20.8371C4.95516 20.272 1.14581 16.0932 1.14581 11.024ZM8.78623 5.729C8.40654 5.729 8.09873 6.0368 8.09873 6.4165C8.09873 6.79619 8.40654 7.104 8.78623 7.104C9.16593 7.104 9.47373 6.79619 9.47373 6.4165C9.47373 6.0368 9.16593 5.729 8.78623 5.729ZM6.72373 6.4165C6.72373 5.27741 7.64714 4.354 8.78623 4.354C9.92532 4.354 10.8487 5.27741 10.8487 6.4165C10.8487 7.55558 9.92532 8.479 8.78623 8.479C7.64714 8.479 6.72373 7.55558 6.72373 6.4165ZM13.2916 5.72921C12.912 5.72921 12.6041 6.03701 12.6041 6.41671C12.6041 6.7964 12.912 7.10421 13.2916 7.10421C13.6713 7.10421 13.9791 6.7964 13.9791 6.41671C13.9791 6.03701 13.6713 5.72921 13.2916 5.72921ZM11.2291 6.41671C11.2291 5.27762 12.1526 4.35421 13.2916 4.35421C14.4307 4.35421 15.3541 5.27762 15.3541 6.41671C15.3541 7.55579 14.4307 8.47921 13.2916 8.47921C12.1526 8.47921 11.2291 7.55579 11.2291 6.41671ZM5.95831 9.85421C5.57862 9.85421 5.27081 10.162 5.27081 10.5417C5.27081 10.9214 5.57862 11.2292 5.95831 11.2292C6.33801 11.2292 6.64581 10.9214 6.64581 10.5417C6.64581 10.162 6.33801 9.85421 5.95831 9.85421ZM3.89581 10.5417C3.89581 9.40262 4.81923 8.47921 5.95831 8.47921C7.0974 8.47921 8.02081 9.40262 8.02081 10.5417C8.02081 11.6808 7.0974 12.6042 5.95831 12.6042C4.81923 12.6042 3.89581 11.6808 3.89581 10.5417ZM16.0416 9.85421C15.662 9.85421 15.3541 10.162 15.3541 10.5417C15.3541 10.9214 15.662 11.2292 16.0416 11.2292C16.4213 11.2292 16.7291 10.9214 16.7291 10.5417C16.7291 10.162 16.4213 9.85421 16.0416 9.85421ZM13.9791 10.5417C13.9791 9.40262 14.9026 8.47921 16.0416 8.47921C17.1807 8.47921 18.1041 9.40262 18.1041 10.5417C18.1041 11.6808 17.1807 12.6042 16.0416 12.6042C14.9026 12.6042 13.9791 11.6808 13.9791 10.5417Z" fill="#8A95A4"/>
</svg>
